<?xml version="1.0" encoding="utf-8"?>
<!-- Generator: Adobe Illustrator 25.4.1, SVG Export Plug-In . SVG Version: 6.00 Build 0)  -->
<svg version="1.1" id="Capa_1" xmlns="http://www.w3.org/2000/svg" xmlns:xlink="http://www.w3.org/1999/xlink" x="0px" y="0px"
	 viewBox="0 0 493.5 493.5" style="enable-background:new 0 0 493.5 493.5;" xml:space="preserve">
<style type="text/css">
	.st0{fill:#EDEDED;}
</style>
<path class="st0" d="M413.4,10.3v36c0,5.7-4.6,10.3-10.3,10.3h-27V72H165.3c-5.7,0-10.3,4.6-10.3,10.3v15.4h16.7V114H155v22.3h16.7
	v16.3H155v19.7h16.7v16.3H155v22.3h16.7v16.3H155V252c0,5.7,4.6,10.3,10.3,10.3h119.5v-56.9h-23.6v-13.6h81.5v13.6h-20.8v56.9h54.2
	v28.3h27c5.7,0,10.3,4.6,10.3,10.3v36c0,5.7-4.6,10.3-10.3,10.3H198.3c-5.7,0-10.3-4.6-10.3-10.3v-16.7h-84.4
	c-5.7,0-10.3-4.6-10.3-10.3v-82.7H80.1v-16.3h13.3v-22.3H80.1v-16.3h13.3v-19.7H80.1v-16.3h13.3V114H80.1V97.7h13.3V27
	c0-5.7,4.6-10.3,10.3-10.3h84.4v-6.4c0-5.7,4.6-10.3,10.3-10.3h204.8C408.8,0,413.4,4.6,413.4,10.3z M321.9,369.7h-37.3v89.5H266v21
	h18.6h37.3H347v-21h-25.1V369.7L321.9,369.7z M365,444.7h-3.4c-5.7,0-10.3,4.6-10.3,10.3v28.3c0,5.7,4.6,10.3,10.3,10.3h3.4
	c5.7,0,10.3-4.6,10.3-10.3V455C375.3,449.3,370.6,444.7,365,444.7z M250.6,444.7h-3.4c-5.7,0-10.3,4.6-10.3,10.3v28.3
	c0,5.7,4.6,10.3,10.3,10.3h3.4c5.7,0,10.3-4.6,10.3-10.3V455C260.9,449.3,256.2,444.7,250.6,444.7z"/>
<path class="st0" d="M188.5,135.9L188.5,135.9L188.5,135.9L188.5,135.9c0,14.7,11.8,25.2,29.8,25.2c6.7,0,14.6-1.9,18.9-4.2v-17.4
	c-4,2.7-10.1,4.8-16.3,4.8c-7.1,0-11.9-3.3-12.1-8.4c0.2-5.1,5-8.4,12.1-8.4c6.1,0,12.3,2.1,16.3,4.8v-17.4
	c-4.3-2.3-12.2-4.2-18.9-4.2C200.2,110.7,188.5,121.2,188.5,135.9"/>
<path class="st0" d="M382.1,132.4c-4.1-0.7-7.2-1.1-9.4-1.7s-3.3-1.3-3.3-2.4c0-1.9,4.3-2.9,10-2.5c10.1,0.8,16.7,3.7,16.7,3.7
	l0.1-15c-6-2-13.5-3.5-23-3.5c-16,0-24.4,6.4-24.4,14.3c0,9.1,7.7,12.3,16.7,13.6c7.9,1.2,12.5,2.1,12.5,4.7c0,2.1-3.3,3.3-9.7,2.8
	c-7.7-0.6-14.7-3.5-19.7-6.6l-0.2,16.6c0,0,7,5.4,23.9,5.4c13.2,0,26.4-4.2,26.4-16.3C398.7,136.8,391.5,133.9,382.1,132.4"/>
<path class="st0" d="M470.3,144.1c-4.5,0-8.5,3.6-8.5,8.4c0,5,3.9,8.5,8.5,8.5c4.4,0,8.4-3.6,8.4-8.5
	C478.7,147.7,474.7,144.1,470.3,144.1"/>
<path class="st0" d="M324,136.2c0,4.9-3.1,8.4-7.6,8.4c-4.6,0-7.7-3.4-7.7-8.5v-23.8h-20v29.1c0,12.9,7.8,19.8,18.6,19.8
	c7.1,0,12.9-2.8,15.8-9.1h0.7l13.2,7.7h7.2l0.1,0.1v-0.1v-7.9v-39.6H324V136.2L324,136.2z"/>
<path class="st0" d="M439.5,111c-7.1,0-12.9,2.8-15.8,9.1h-0.8v-18.5L409.7,94h-7.3v26.3v39.6h20.4V136c0-4.9,3.1-8.4,7.6-8.4
	c4.6,0,7.7,3.4,7.7,8.5v23.8h20v-29.1C458.1,117.9,450.2,111,439.5,111"/>
<path class="st0" d="M262.2,120l-13-7.6H242l-0.1-0.1v0.1v2.1v5.8v39.6h20.4v-20.5c0-0.3,0-0.6,0-0.8c0.4-8.3,7.7-11,14.2-11
	c3,0,6.1,0.6,8.7,2v-17.7c-1.8-0.6-3.7-0.9-5.6-0.9C273.6,111,265.9,114.1,262.2,120"/>
</svg>
