<?xml version="1.0" encoding="utf-8"?>
<!-- Generator: Adobe Illustrator 25.4.1, SVG Export Plug-In . SVG Version: 6.00 Build 0)  -->
<svg version="1.1" id="Layer_1" xmlns="http://www.w3.org/2000/svg" xmlns:xlink="http://www.w3.org/1999/xlink" x="0px" y="0px"
	 viewBox="0 0 128 128" style="enable-background:new 0 0 128 128;" xml:space="preserve">
<style type="text/css">
	.st0{fill:#160705;}
	.st1{fill:#EDEDED;}
</style>
<circle class="st0" cx="64" cy="64" r="64"/>
<path class="st1" d="M85.7,25.2v6.3c0,1-0.8,1.8-1.8,1.8h-4.7V36h-37c-1,0-1.8,0.8-1.8,1.8v2.7h2.9v2.9h-2.9v3.9h2.9v2.9h-2.9v3.5
	h2.9v2.9h-2.9v3.9h2.9v2.9h-2.9v4.3c0,1,0.8,1.8,1.8,1.8h21v-10H59V57h14.3v2.4h-3.6v10h9.5v5h4.7c1,0,1.8,0.8,1.8,1.8v6.3
	c0,1-0.8,1.8-1.8,1.8H48c-1,0-1.8-0.8-1.8-1.8v-2.9H31.4c-1,0-1.8-0.8-1.8-1.8V63.2h-2.3v-2.9h2.3v-3.9h-2.3v-2.9h2.3v-3.5h-2.3
	v-2.9h2.3v-3.9h-2.3v-2.9h2.3V28.1c0-1,0.8-1.8,1.8-1.8h14.8v-1.1c0-1,0.8-1.8,1.8-1.8h35.9C84.9,23.4,85.7,24.2,85.7,25.2z
	 M69.7,88.2h-6.5v15.7h-3.3v3.7h3.3h6.5h4.4v-3.7h-4.4V88.2L69.7,88.2z M77.2,101.3h-0.6c-1,0-1.8,0.8-1.8,1.8v5
	c0,1,0.8,1.8,1.8,1.8h0.6c1,0,1.8-0.8,1.8-1.8v-5C79,102.1,78.2,101.3,77.2,101.3z M57.2,101.3h-0.6c-1,0-1.8,0.8-1.8,1.8v5
	c0,1,0.8,1.8,1.8,1.8h0.6c1,0,1.8-0.8,1.8-1.8v-5C59,102.1,58.1,101.3,57.2,101.3z"/>
<path class="st1" d="M46.3,47.2L46.3,47.2L46.3,47.2L46.3,47.2c0,2.6,2.1,4.4,5.2,4.4c1.2,0,2.6-0.3,3.3-0.7v-3.1
	c-0.7,0.5-1.8,0.8-2.9,0.8c-1.2,0-2.1-0.6-2.1-1.5c0-0.9,0.9-1.5,2.1-1.5c1.1,0,2.2,0.4,2.9,0.8v-3.1c-0.8-0.4-2.1-0.7-3.3-0.7
	C48.3,42.8,46.3,44.6,46.3,47.2"/>
<path class="st1" d="M80.2,46.6c-0.7-0.1-1.3-0.2-1.6-0.3S78,46,78,45.8c0-0.3,0.8-0.5,1.8-0.4c1.8,0.1,2.9,0.6,2.9,0.6l0-2.6
	c-1.1-0.4-2.4-0.6-4-0.6c-2.8,0-4.3,1.1-4.3,2.5c0,1.6,1.4,2.2,2.9,2.4c1.4,0.2,2.2,0.4,2.2,0.8c0,0.4-0.6,0.6-1.7,0.5
	c-1.4-0.1-2.6-0.6-3.5-1.2l0,2.9c0,0,1.2,0.9,4.2,0.9c2.3,0,4.6-0.7,4.6-2.9C83.1,47.3,81.9,46.8,80.2,46.6"/>
<path class="st1" d="M95.7,48.6c-0.8,0-1.5,0.6-1.5,1.5c0,0.9,0.7,1.5,1.5,1.5c0.8,0,1.5-0.6,1.5-1.5C97.1,49.3,96.4,48.6,95.7,48.6
	"/>
<path class="st1" d="M70,47.2c0,0.9-0.5,1.5-1.3,1.5c-0.8,0-1.4-0.6-1.4-1.5V43h-3.5v5.1c0,2.3,1.4,3.5,3.3,3.5
	c1.2,0,2.3-0.5,2.8-1.6H70l2.3,1.4h1.3l0,0v0V50V43H70V47.2L70,47.2z"/>
<path class="st1" d="M90.3,42.8c-1.2,0-2.3,0.5-2.8,1.6h-0.1v-3.2L85,39.8h-1.3v4.6v6.9h3.6v-4.2c0-0.9,0.5-1.5,1.3-1.5
	c0.8,0,1.4,0.6,1.4,1.5v4.2h3.5v-5.1C93.5,44,92.1,42.8,90.3,42.8"/>
<path class="st1" d="M59.2,44.4l-2.3-1.3h-1.3l0,0v0v0.4v1v6.9h3.6v-3.6c0-0.1,0-0.1,0-0.1c0.1-1.5,1.4-1.9,2.5-1.9
	c0.5,0,1.1,0.1,1.5,0.4V43c-0.3-0.1-0.6-0.2-1-0.2C61.2,42.8,59.8,43.4,59.2,44.4"/>
</svg>
